# xmcd
#
# Track frame offsets:
#	182
#	26122
#	50385
#	72390
#	91400
#	108795
#	125765
#	139297
#	161640
#	181947
#	202535
#	218847
#	235487
#	253932
#	272255
#
# Disc length: 3821 seconds
#
# Revision: 2
# Processed by: cddbd v1.4b41PL1 Copyright (c) Steve Scherf et al.
# Submitted via: audiograbber 1.80
#
DISCID=d70eeb0f
DTITLE=David Byrne - Rei Momo
DYEAR=1900
DGENRE=
TTITLE0=Independence Day
TTITLE1=Make Believe Mambo
TTITLE2=The Call Of The Wild
TTITLE3=Dirty Old Town
TTITLE4=The Rose Tattoo
TTITLE5=Loco De Amor
TTITLE6=The Dream Police
TTITLE7=Don't Want To Be Part Of Your World
TTITLE8=Marching Through The Wilderness
TTITLE9=Good And Evil
TTITLE10=Lie To Me
TTITLE11=Office Cowboy
TTITLE12=Woman Vs. Man
TTITLE13=Carnival Eyes
TTITLE14=I Know Somethimes A Man Is Wrong
EXTD=
EXTT0=
EXTT1=
EXTT2=
EXTT3=
EXTT4=
EXTT5=
EXTT6=
EXTT7=
EXTT8=
EXTT9=
EXTT10=
EXTT11=
EXTT12=
EXTT13=
EXTT14=
PLAYORDER=
